<?xml version="1.0" standalone="no"?>
<!DOCTYPE svg PUBLIC "-//W3C//DTD SVG 20010904//EN"
 "http://www.w3.org/TR/2001/REC-SVG-20010904/DTD/svg10.dtd">
<svg version="1.0" xmlns="http://www.w3.org/2000/svg"
 width="63.000000pt" height="63.000000pt" viewBox="0 0 63.000000 63.000000"
 preserveAspectRatio="xMidYMid meet">

<g transform="translate(0.000000,63.000000) scale(0.100000,-0.100000)"
fill="#184ca1" stroke="none">
<path d="M268 574 c-29 -15 -58 -61 -58 -89 0 -31 31 -82 56 -94 70 -32 154
16 154 89 0 34 -28 78 -60 95 -36 19 -57 18 -92 -1z"/>
<path d="M55 485 c-28 -27 -30 -37 -14 -68 16 -29 28 -37 60 -37 55 0 82 83
37 114 -32 22 -55 20 -83 -9z"/>
<path d="M492 494 c-15 -10 -22 -25 -22 -48 0 -80 107 -92 125 -14 5 21 1 33
-19 52 -29 30 -52 33 -84 10z"/>
<path d="M44 318 c-12 -5 -27 -21 -33 -34 -15 -34 -14 -177 1 -192 7 -7 31
-12 54 -12 l41 0 5 83 c3 63 10 92 26 119 20 31 20 37 6 42 -23 9 -76 6 -100
-6z"/>
<path d="M232 313 c-56 -27 -75 -66 -80 -158 -6 -117 -6 -117 170 -113 110 2
141 6 149 18 5 8 8 51 6 96 -4 93 -27 136 -83 160 -44 19 -121 17 -162 -3z"/>
<path d="M482 323 c-9 -4 -7 -14 10 -41 16 -27 23 -56 26 -119 l5 -83 34 0
c65 0 73 11 73 100 0 89 -11 123 -47 139 -24 11 -78 14 -101 4z"/>
</g>
</svg>
