<?xml version="1.0" encoding="UTF-8"?>
<!DOCTYPE svg PUBLIC "-//W3C//DTD SVG 1.1//EN" "http://www.w3.org/Graphics/SVG/1.1/DTD/svg11.dtd">
<svg xmlns="http://www.w3.org/2000/svg" version="1.1" width="512px" height="512px" style="shape-rendering:geometricPrecision; text-rendering:geometricPrecision; image-rendering:optimizeQuality; fill-rule:evenodd; clip-rule:evenodd" xmlns:xlink="http://www.w3.org/1999/xlink">
<g><path style="opacity:0.94" fill="#ffffff" d="M 167.5,-0.5 C 244.5,-0.5 321.5,-0.5 398.5,-0.5C 403.564,2.0678 407.064,6.0678 409,11.5C 409.333,102.5 409.667,193.5 410,284.5C 420.333,296.5 430.667,308.5 441,320.5C 446.045,331.701 443.545,340.868 433.5,348C 420.791,359.045 407.791,369.711 394.5,380C 390.154,381.247 385.82,381.581 381.5,381C 372.66,388.342 363.994,395.842 355.5,403.5C 363.983,417.287 362.317,429.787 350.5,441C 345.898,443.867 340.898,445.534 335.5,446C 331.933,459.298 323.266,466.798 309.5,468.5C 306.178,482.158 297.512,489.158 283.5,489.5C 281.506,500.156 275.506,507.49 265.5,511.5C 260.5,511.5 255.5,511.5 250.5,511.5C 247.1,509.963 243.767,508.13 240.5,506C 235.833,500.667 231.167,495.333 226.5,490C 205.796,493.665 194.129,485.165 191.5,464.5C 177.349,461.677 170.016,453.011 169.5,438.5C 155.601,436.093 148.101,427.76 147,413.5C 130.332,408.804 123.332,397.804 126,380.5C 126.45,378.481 127.283,376.648 128.5,375C 126.402,372.146 124.069,369.479 121.5,367C 116.944,366.891 112.611,365.891 108.5,364C 93.4667,348.98 79.9667,332.813 68,315.5C 67.0229,310.266 67.6896,305.266 70,300.5C 79.721,290.943 89.8877,281.943 100.5,273.5C 101.333,204.502 101.833,135.502 102,66.5C 102.471,64.7536 103.138,63.087 104,61.5C 124.757,40.2407 145.924,19.574 167.5,-0.5 Z M 179.5,17.5 C 250.167,17.5 320.833,17.5 391.5,17.5C 391.667,99.1673 391.5,180.834 391,262.5C 378.048,247.426 365.215,232.259 352.5,217C 344.718,211.489 336.718,211.155 328.5,216C 314.385,227.814 300.552,239.98 287,252.5C 283.152,258.256 282.652,264.256 285.5,270.5C 277.527,271.562 269.527,272.395 261.5,273C 255.666,275.413 250.332,278.58 245.5,282.5C 239.526,281.216 233.693,279.549 228,277.5C 230.59,270.035 229.59,263.035 225,256.5C 213.206,242.37 201.039,228.537 188.5,215C 181.268,211.425 174.268,211.759 167.5,216C 151.961,229.875 136.127,243.375 120,256.5C 119.5,196.501 119.333,136.501 119.5,76.5C 135.503,76.6666 151.503,76.4999 167.5,76C 173.492,73.3413 177.325,68.8413 179,62.5C 179.5,47.5037 179.667,32.5037 179.5,17.5 Z M 160.5,30.5 C 161.494,39.6517 161.827,48.985 161.5,58.5C 152.161,58.6665 142.827,58.4998 133.5,58C 142.702,48.965 151.702,39.7984 160.5,30.5 Z M 177.5,231.5 C 179.371,231.859 180.871,232.859 182,234.5C 191.312,245.98 200.812,257.313 210.5,268.5C 180.019,294.48 149.686,320.646 119.5,347C 118.833,347.667 118.167,347.667 117.5,347C 108,336.167 98.5,325.333 89,314.5C 87.7107,312.945 87.044,311.279 87,309.5C 117.064,283.261 147.231,257.261 177.5,231.5 Z M 338.5,231.5 C 341.056,232.543 343.223,234.21 345,236.5C 370.959,267.461 397.292,298.128 424,328.5C 424.63,330.903 423.797,332.737 421.5,334C 410.039,343.125 398.873,352.625 388,362.5C 359.382,329.427 330.882,296.26 302.5,263C 314.397,252.262 326.397,241.762 338.5,231.5 Z M 288.5,288.5 C 292.514,288.334 296.514,288.501 300.5,289C 322.793,315.628 345.459,341.961 368.5,368C 360.312,375.022 351.979,381.856 343.5,388.5C 324.01,366.207 304.51,343.874 285,321.5C 285.363,317.199 285.363,312.866 285,308.5C 280.311,303.757 275.145,303.257 269.5,307C 252.795,322.04 235.795,336.707 218.5,351C 210.169,353.339 206.336,350.172 207,341.5C 225.486,324.685 244.32,308.185 263.5,292C 271.871,290.283 280.204,289.117 288.5,288.5 Z M 210.5,292.5 C 216.685,293.546 222.685,295.213 228.5,297.5C 218.579,306.797 208.246,315.63 197.5,324C 185.508,337.374 185.508,350.707 197.5,364C 206.197,370.117 215.531,371.451 225.5,368C 240.793,356.431 255.626,344.264 270,331.5C 293.667,359.167 317.333,386.833 341,414.5C 344.451,423.039 341.618,427.206 332.5,427C 325.152,420.317 318.485,412.983 312.5,405C 302.279,400.188 297.112,403.354 297,414.5C 302.617,422.719 308.951,430.386 316,437.5C 318.082,445.432 314.916,449.265 306.5,449C 301.189,444.021 296.189,438.687 291.5,433C 280.981,428.865 276.147,432.365 277,443.5C 280.955,449.123 285.288,454.457 290,459.5C 292.734,468.105 289.567,471.938 280.5,471C 276.852,467.021 272.852,463.355 268.5,460C 258.833,458.669 255,462.836 257,472.5C 259.333,475.5 261.667,478.5 264,481.5C 266.367,485.999 265.533,489.832 261.5,493C 258.366,493.79 255.366,493.457 252.5,492C 248.667,487.5 244.833,483 241,478.5C 241.73,474.06 242.563,469.56 243.5,465C 242.753,450.757 235.42,442.257 221.5,439.5C 220.26,424.953 212.593,416.286 198.5,413.5C 198.208,399.531 191.208,390.864 177.5,387.5C 173.782,367.464 161.782,358.964 141.5,362C 139.595,360.185 137.928,358.185 136.5,356C 161.424,335.052 186.091,313.886 210.5,292.5 Z M 148.5,379.5 C 156.149,379.314 159.315,382.981 158,390.5C 153.333,397.167 148.667,397.167 144,390.5C 142.776,385.626 144.276,381.959 148.5,379.5 Z M 170.5,405.5 C 179.849,405.967 182.682,410.3 179,418.5C 175.04,422.478 171.04,422.478 167,418.5C 164.348,413.039 165.514,408.706 170.5,405.5 Z M 191.5,431.5 C 197.956,430.222 201.956,432.722 203.5,439C 201.708,445.554 197.708,447.887 191.5,446C 186.232,441.171 186.232,436.337 191.5,431.5 Z M 216.5,456.5 C 225.057,458.675 227.057,463.509 222.5,471C 212.511,474.007 208.677,470.507 211,460.5C 212.5,458.531 214.333,457.198 216.5,456.5 Z"/></g>
<g><path style="opacity:0.926" fill="#ffffff" d="M 183.5,84.5 C 193.843,83.9992 197.676,88.6658 195,98.5C 185.642,110.358 176.475,122.358 167.5,134.5C 163.916,136.877 160.25,137.043 156.5,135C 152.667,131.167 148.833,127.333 145,123.5C 143.221,113.279 147.387,109.112 157.5,111C 158.931,111.465 160.097,112.299 161,113.5C 168.012,103.337 175.512,93.6708 183.5,84.5 Z"/></g>
<g><path style="opacity:0.899" fill="#ffffff" d="M 226.5,84.5 C 231.844,84.334 237.177,84.5006 242.5,85C 249.423,91.1182 249.09,96.7848 241.5,102C 235.747,102.851 230.08,102.517 224.5,101C 218.898,94.6666 219.565,89.1666 226.5,84.5 Z"/></g>
<g><path style="opacity:0.937" fill="#ffffff" d="M 268.5,84.5 C 299.502,84.3334 330.502,84.5 361.5,85C 365.084,86.6638 366.751,89.4971 366.5,93.5C 366.833,98.0054 364.833,100.839 360.5,102C 330.167,102.667 299.833,102.667 269.5,102C 261.855,96.6177 261.522,90.7843 268.5,84.5 Z"/></g>
<g><path style="opacity:0.932" fill="#ffffff" d="M 226.5,118.5 C 248.503,118.333 270.503,118.5 292.5,119C 298.092,121.402 299.925,125.569 298,131.5C 296.773,133.726 294.939,135.226 292.5,136C 270.5,136.667 248.5,136.667 226.5,136C 218.581,130.173 218.581,124.34 226.5,118.5 Z"/></g>
<g><path style="opacity:0.916" fill="#ffffff" d="M 184.5,152.5 C 194.353,152.51 197.853,157.177 195,166.5C 185.868,179.623 176.035,192.123 165.5,204C 162.833,204.667 160.167,204.667 157.5,204C 152.667,200.5 148.5,196.333 145,191.5C 142.893,184.025 145.56,179.691 153,178.5C 155.895,178.532 158.395,179.532 160.5,181.5C 167.243,173.012 173.743,164.346 180,155.5C 181.652,154.601 183.152,153.601 184.5,152.5 Z"/></g>
<g><path style="opacity:0.896" fill="#ffffff" d="M 227.5,152.5 C 232.959,152.103 238.292,152.603 243.5,154C 248.998,159.682 248.665,165.015 242.5,170C 236.388,170.909 230.388,170.576 224.5,169C 218.737,162.224 219.737,156.724 227.5,152.5 Z"/></g>
<g><path style="opacity:0.937" fill="#ffffff" d="M 269.5,152.5 C 299.835,152.333 330.168,152.5 360.5,153C 364.833,154.161 366.833,156.995 366.5,161.5C 366.751,165.503 365.084,168.336 361.5,170C 330.5,170.667 299.5,170.667 268.5,170C 261.631,163.724 261.965,157.891 269.5,152.5 Z"/></g>
<g><path style="opacity:0.933" fill="#ffffff" d="M 227.5,186.5 C 249.169,186.333 270.836,186.5 292.5,187C 297.732,189.633 299.565,193.799 298,199.5C 297.167,201.667 295.667,203.167 293.5,204C 270.833,204.667 248.167,204.667 225.5,204C 218.791,197.303 219.457,191.469 227.5,186.5 Z"/></g>
</svg>
