<?xml version="1.0" standalone="no"?>
<!DOCTYPE svg PUBLIC "-//W3C//DTD SVG 20010904//EN"
 "http://www.w3.org/TR/2001/REC-SVG-20010904/DTD/svg10.dtd">
<svg version="1.0" xmlns="http://www.w3.org/2000/svg"
 width="70px" height="100px" viewBox="0 0 512.000000 512.000000"
 preserveAspectRatio="xMidYMid meet">
<metadata>
Created by potrace 1.16, written by Peter Selinger 2001-2019
</metadata>
<g transform="translate(0.000000,512.000000) scale(0.100000,-0.100000)"
fill="#FFD139" stroke="none">
<path d="M1535 4734 c-545 -211 -1066 -414 -1158 -450 -93 -37 -177 -75 -188
-87 -19 -20 -19 -51 -19 -1637 0 -1575 0 -1617 19 -1637 23 -24 -94 23 1242
-497 653 -254 1109 -426 1129 -426 20 0 476 172 1129 426 1336 520 1219 473
1242 497 19 20 19 62 19 1637 0 1575 0 1617 -19 1637 -23 24 90 -21 -1242 497
-682 265 -1110 426 -1130 426 -20 0 -438 -158 -1024 -386z m2052 -196 c557
-216 1013 -396 1013 -399 0 -3 -200 -83 -444 -178 l-444 -172 -1026 399 -1026
399 437 171 c241 94 447 171 458 172 11 0 476 -176 1032 -392z m-1153 -448
c559 -217 1016 -397 1016 -400 0 -3 -201 -82 -445 -177 l-445 -172 -1020 396
c-561 218 -1020 399 -1020 402 0 7 882 351 892 348 3 -1 463 -180 1022 -397z
m-1009 -504 l1040 -404 3 -1482 c2 -1185 0 -1481 -10 -1477 -7 3 -484 188
-1060 412 l-1048 408 0 1479 c0 1404 1 1479 18 1474 9 -3 485 -188 1057 -410z
m3345 -1065 l0 -1478 -1047 -408 c-577 -224 -1054 -409 -1061 -412 -10 -4 -12
292 -10 1477 l3 1482 1050 408 c578 225 1053 409 1058 409 4 1 7 -664 7 -1478z"/>
</g>
</svg>
