<?xml version="1.0" standalone="no"?>
<!DOCTYPE svg PUBLIC "-//W3C//DTD SVG 20010904//EN"
 "http://www.w3.org/TR/2001/REC-SVG-20010904/DTD/svg10.dtd">
<svg version="1.0" xmlns="http://www.w3.org/2000/svg"
 width="63.000000pt" height="63.000000pt" viewBox="0 0 63.000000 63.000000"
 preserveAspectRatio="xMidYMid meet">

<g transform="translate(0.000000,63.000000) scale(0.100000,-0.100000)"
fill="#184ca1" stroke="none">
<path d="M225 598 c-2 -7 -5 -24 -7 -38 -2 -20 -9 -26 -35 -28 l-33 -3 0 -105
0 -105 35 27 36 27 29 -28 c17 -16 30 -35 30 -43 0 -23 59 -6 82 23 36 46 56
50 89 19 l29 -28 0 147 0 147 -125 0 c-92 0 -127 -3 -130 -12z m80 -77 c7 -12
-12 -24 -25 -16 -11 7 -4 25 10 25 5 0 11 -4 15 -9z m143 -8 c3 -10 -13 -13
-57 -13 -56 0 -86 12 -59 24 24 10 111 1 116 -11z m-208 -2 c0 -5 -9 -19 -19
-32 -15 -19 -22 -21 -32 -12 -10 10 -7 16 12 32 26 22 39 26 39 12z m130 -41
c0 -5 -22 -10 -50 -10 -27 0 -50 5 -50 10 0 6 23 10 50 10 28 0 50 -4 50 -10z
m-130 -43 c0 -23 -39 -52 -52 -39 -8 8 -5 16 13 31 28 24 39 26 39 8z m70 3
c0 -5 -9 -10 -20 -10 -11 0 -20 5 -20 10 0 6 9 10 20 10 11 0 20 -4 20 -10z
m140 0 c0 -6 -27 -10 -60 -10 -33 0 -60 4 -60 10 0 6 27 10 60 10 33 0 60 -4
60 -10z m-82 -42 c-5 -14 -61 -23 -85 -14 -27 11 -2 26 43 26 32 0 44 -4 42
-12z"/>
<path d="M180 570 c0 -5 5 -10 10 -10 6 0 10 5 10 10 0 6 -4 10 -10 10 -5 0
-10 -4 -10 -10z"/>
<path d="M162 292 c-54 -47 -54 -47 -33 -66 20 -18 21 -18 59 12 59 47 65 57
52 81 -6 12 -14 21 -18 21 -4 0 -31 -22 -60 -48z"/>
<path d="M396 322 c-18 -21 -17 -22 30 -76 26 -31 51 -56 54 -56 4 0 14 8 23
18 16 18 14 22 -35 76 -53 58 -53 58 -72 38z"/>
<path d="M223 234 l-41 -34 59 -62 c32 -35 59 -71 59 -80 0 -9 5 -20 12 -24 8
-5 9 -2 5 11 -6 14 -3 16 14 12 18 -5 20 -2 15 19 -6 24 7 33 19 14 3 -5 11
-10 17 -10 6 0 3 11 -6 25 -13 19 -13 25 -3 25 7 0 18 -5 25 -12 6 -6 14 -9
17 -6 3 3 -14 27 -39 54 l-44 49 -32 -23 c-52 -39 -93 -3 -50 43 36 38 19 38
-27 -1z"/>
<path d="M292 239 c-19 -17 -31 -33 -28 -36 3 -3 22 9 42 26 l36 32 19 -28
c37 -58 56 -76 73 -70 20 8 15 18 -31 71 -40 44 -67 46 -111 5z"/>
</g>
</svg>
