<?xml version="1.0" standalone="no"?>
<!DOCTYPE svg PUBLIC "-//W3C//DTD SVG 20010904//EN"
 "http://www.w3.org/TR/2001/REC-SVG-20010904/DTD/svg10.dtd">
<svg version="1.0" xmlns="http://www.w3.org/2000/svg"
 width="63.000000pt" height="63.000000pt" viewBox="0 0 63.000000 63.000000"
 preserveAspectRatio="xMidYMid meet">

<g transform="translate(0.000000,63.000000) scale(0.100000,-0.100000)"
fill="#184ca1" stroke="none">
<path d="M36 574 c-10 -9 -16 -33 -16 -60 l0 -44 295 0 295 0 0 44 c0 54 -24
76 -82 76 -37 0 -38 -1 -38 -36 0 -28 -3 -35 -17 -32 -12 2 -19 14 -21 36 l-3
32 -145 0 -144 0 0 -36 c0 -28 -3 -35 -17 -32 -12 2 -19 14 -21 36 -3 29 -6
32 -37 32 -18 0 -41 -7 -49 -16z"/>
<path d="M20 254 c0 -102 4 -183 10 -195 10 -18 24 -19 279 -19 247 0 269 1
284 18 15 16 17 45 17 195 l0 177 -295 0 -295 0 0 -176z m168 107 c8 -5 12
-22 10 -42 -3 -29 -7 -34 -32 -37 -31 -4 -46 10 -46 44 0 37 36 56 68 35z
m150 0 c8 -5 12 -22 10 -42 -3 -32 -6 -34 -38 -34 -32 0 -35 2 -38 34 -4 34 9
51 38 51 8 0 21 -4 28 -9z m155 -12 c5 -9 7 -28 3 -43 -6 -24 -11 -27 -39 -24
-28 3 -32 7 -35 37 -4 37 10 53 42 49 10 -2 23 -10 29 -19z m-293 -190 l0 -40
-37 3 c-31 2 -39 7 -41 26 -6 39 5 52 43 52 34 0 35 -1 35 -41z m148 -1 l3
-38 -40 0 c-40 0 -41 1 -41 33 0 19 3 37 7 41 4 4 21 6 38 4 27 -3 30 -7 33
-40z m147 2 c0 -33 -2 -35 -37 -38 l-38 -3 0 41 0 41 38 -3 c35 -3 37 -5 37
-38z"/>
</g>
</svg>
