<?xml version="1.0" standalone="no"?>
<!DOCTYPE svg PUBLIC "-//W3C//DTD SVG 20010904//EN"
 "http://www.w3.org/TR/2001/REC-SVG-20010904/DTD/svg10.dtd">
<svg version="1.0" xmlns="http://www.w3.org/2000/svg"
 width="70px" height="100px" viewBox="0 0 512.000000 512.000000"
 preserveAspectRatio="xMidYMid meet">
<metadata>
Created by potrace 1.16, written by Peter Selinger 2001-2019
</metadata>
<g transform="translate(0.000000,512.000000) scale(0.100000,-0.100000)"
fill="#FFD139" stroke="none">
<path d="M2480 4990 c-185 -39 -425 -289 -528 -550 -61 -154 -87 -315 -112
-694 -6 -88 -13 -163 -16 -168 -3 -4 -16 -8 -29 -8 -44 0 -152 -40 -211 -78
-113 -74 -186 -168 -229 -295 -24 -72 -25 -86 -25 -302 l0 -227 34 -34 c51
-51 93 -48 183 16 130 92 230 130 374 145 l67 6 37 -68 c21 -37 43 -71 49 -75
6 -4 43 -8 82 -8 l71 0 11 -51 c7 -29 11 -52 10 -53 -118 -44 -212 -166 -225
-290 l-6 -54 -91 -4 c-76 -3 -102 -9 -158 -35 -95 -45 -161 -110 -207 -206
l-39 -78 -59 76 c-384 492 -401 1165 -42 1669 73 101 196 231 282 295 48 37
57 48 57 75 0 71 -56 76 -138 12 -82 -63 -213 -199 -282 -291 -118 -158 -222
-396 -267 -605 -14 -67 -18 -130 -18 -295 0 -184 3 -223 23 -315 98 -439 374
-805 770 -1021 23 -12 42 -30 42 -38 0 -76 43 -528 51 -544 16 -31 50 -57 76
-57 21 0 21 -3 25 -217 4 -200 6 -223 28 -278 31 -81 113 -163 195 -196 57
-23 70 -24 295 -24 225 0 238 1 295 24 82 33 164 115 195 196 22 55 24 78 28
277 4 215 4 218 25 218 12 0 29 6 38 13 43 33 48 57 70 332 11 149 22 270 22
271 1 0 43 24 92 54 367 217 623 571 717 990 20 92 23 131 23 315 0 183 -3
223 -23 314 -47 209 -145 429 -262 586 -69 92 -200 228 -282 291 -82 64 -138
59 -138 -12 0 -27 9 -38 58 -75 81 -61 207 -192 275 -286 365 -510 351 -1183
-36 -1678 l-60 -77 -32 68 c-45 98 -110 166 -202 211 -67 33 -86 38 -168 41
l-92 4 -5 63 c-10 117 -76 221 -175 277 -58 33 -58 32 -42 77 11 31 11 31 82
31 40 0 77 4 83 8 6 4 28 38 49 75 l37 68 67 -6 c144 -15 244 -53 374 -145 90
-64 132 -67 183 -16 l34 34 0 199 c0 225 -8 273 -67 393 -66 136 -225 266
-368 301 -27 6 -53 15 -58 18 -4 4 -12 79 -17 167 -25 387 -54 557 -123 722
-90 211 -299 443 -454 502 -63 23 -162 32 -223 20z m169 -125 c47 -16 135 -82
199 -148 l44 -44 -59 -37 c-86 -54 -150 -71 -273 -71 -123 0 -187 17 -273 71
l-59 37 49 49 c56 58 155 131 198 146 44 15 126 14 174 -3z m-374 -358 c167
-83 384 -86 554 -7 36 17 80 42 98 56 l32 24 19 -28 c55 -77 121 -249 142
-368 32 -188 71 -847 56 -966 l-7 -58 -609 0 -609 0 -7 58 c-15 117 23 775 56
966 21 120 86 290 142 368 l19 28 32 -24 c18 -13 55 -35 82 -49z m-443 -1239
l3 -193 47 -82 c46 -82 46 -83 22 -83 -49 0 -180 -32 -250 -61 -40 -17 -104
-52 -143 -79 l-71 -49 0 163 c0 90 5 188 10 217 22 119 108 242 212 302 38 22
126 53 160 56 4 1 8 -86 10 -191z m1578 145 c72 -35 177 -141 213 -215 43 -91
57 -167 57 -330 l0 -147 -71 49 c-39 27 -103 62 -143 79 -70 29 -201 61 -250
61 -24 0 -24 1 22 83 l47 82 3 192 3 191 32 -9 c17 -5 57 -21 87 -36z m-359
-513 l-76 -140 -177 0 -178 0 0 73 c0 86 -16 117 -60 117 -44 0 -60 -31 -60
-117 l0 -73 -177 0 -178 0 -72 134 c-40 73 -73 136 -73 140 0 3 254 6 564 6
l564 0 -77 -140z m-310 -341 c-15 -51 -26 -103 -23 -116 10 -51 92 -53 110 -3
8 20 9 20 50 -9 23 -17 54 -50 69 -73 25 -37 28 -51 28 -123 0 -74 -3 -85 -30
-124 -62 -89 -61 -86 -42 -115 17 -26 47 -33 82 -20 8 4 29 26 45 49 25 36 38
45 80 55 139 33 311 -63 354 -198 32 -101 31 -105 -16 -144 -65 -53 -185 -131
-256 -167 -35 -17 -65 -37 -67 -44 -5 -13 -45 -503 -45 -549 l0 -28 -520 0
-520 0 0 28 c0 46 -40 536 -45 549 -2 7 -31 26 -65 43 -81 41 -162 93 -238
153 -70 55 -69 53 -36 159 43 133 221 234 351 199 33 -9 46 -20 67 -55 33 -57
80 -96 115 -96 64 0 70 61 11 127 -49 57 -63 99 -58 179 4 73 38 131 98 172
l35 24 10 -35 c6 -19 16 -42 24 -51 17 -20 64 -21 81 -1 18 22 15 53 -14 178
-14 60 -26 113 -26 118 0 5 90 9 209 9 l209 0 -27 -91z m219 -1921 c0 -192 -1
-206 -24 -254 -27 -59 -90 -116 -145 -132 -51 -16 -411 -16 -462 0 -85 25
-169 134 -169 221 l0 37 188 0 c154 0 192 3 210 16 26 18 29 60 5 86 -14 16
-35 18 -210 18 l-193 0 0 105 0 105 400 0 400 0 0 -202z"/>
<path d="M2487 4360 c-111 -20 -216 -101 -269 -208 -31 -62 -33 -74 -33 -167
0 -89 3 -107 29 -163 37 -80 122 -161 203 -193 81 -32 205 -32 286 0 81 32
166 113 203 193 26 56 29 74 29 163 0 87 -3 107 -26 155 -76 162 -246 251
-422 220z m189 -138 c49 -25 110 -91 132 -141 22 -52 20 -146 -5 -202 -45
-100 -130 -154 -243 -154 -113 0 -198 54 -243 154 -25 56 -27 150 -5 202 30
70 103 136 178 160 41 14 142 3 186 -19z"/>
<path d="M1262 4874 c-39 -27 -28 -59 85 -238 58 -94 113 -179 121 -188 21
-25 78 -24 92 1 5 11 10 28 10 37 0 24 -218 372 -244 390 -26 18 -36 18 -64
-2z"/>
<path d="M3787 4868 c-33 -31 -237 -359 -237 -382 0 -9 5 -26 10 -37 14 -25
71 -26 92 -1 8 9 63 94 121 188 113 179 124 211 85 238 -30 21 -42 20 -71 -6z"/>
<path d="M664 4335 c-19 -19 -23 -31 -18 -48 8 -28 -6 -15 183 -166 171 -137
200 -151 234 -113 24 27 21 55 -10 84 -62 58 -335 268 -349 268 -8 0 -26 -11
-40 -25z"/>
<path d="M4223 4218 c-186 -149 -202 -170 -167 -209 35 -39 63 -26 235 112
189 151 175 138 183 166 5 17 1 29 -18 48 -14 14 -32 25 -40 25 -9 0 -96 -64
-193 -142z"/>
<path d="M277 3642 c-20 -22 -22 -65 -4 -81 19 -15 407 -151 432 -151 44 0 70
57 43 92 -13 17 -405 158 -437 158 -10 0 -25 -8 -34 -18z"/>
<path d="M4585 3589 c-110 -39 -206 -78 -212 -87 -29 -36 -2 -92 43 -92 25 0
412 136 431 151 33 28 2 100 -43 99 -10 -1 -109 -33 -219 -71z"/>
<path d="M142 2858 c-7 -7 -12 -26 -12 -43 0 -17 5 -36 12 -43 9 -9 77 -12
243 -12 212 0 233 2 248 18 19 21 21 45 7 73 -10 18 -24 19 -248 19 -172 0
-241 -3 -250 -12z"/>
<path d="M4480 2851 c-15 -29 -12 -56 8 -74 16 -15 48 -17 241 -17 134 0 230
4 242 10 22 12 27 68 7 88 -9 9 -78 12 -250 12 -224 0 -238 -1 -248 -19z"/>
<path d="M479 2152 c-102 -37 -194 -73 -203 -81 -29 -24 -18 -77 20 -91 19 -7
68 6 226 61 111 38 210 77 220 86 40 36 11 94 -45 92 -18 0 -116 -31 -218 -67z"/>
<path d="M4376 2204 c-21 -21 -20 -57 2 -77 9 -8 109 -47 220 -86 184 -64 206
-70 230 -59 34 16 42 66 15 89 -23 21 -391 149 -425 149 -15 0 -34 -7 -42 -16z"/>
</g>
</svg>
