<?xml version="1.0" encoding="UTF-8"?>
<!DOCTYPE svg PUBLIC "-//W3C//DTD SVG 1.1//EN" "http://www.w3.org/Graphics/SVG/1.1/DTD/svg11.dtd">
<svg xmlns="http://www.w3.org/2000/svg" version="1.1" width="512px" height="512px" style="shape-rendering:geometricPrecision; text-rendering:geometricPrecision; image-rendering:optimizeQuality; fill-rule:evenodd; clip-rule:evenodd" xmlns:xlink="http://www.w3.org/1999/xlink">
<g><path style="opacity:0.988" fill="#ffffff" d="M 45.5,29.5 C 63.5,29.5 81.5,29.5 99.5,29.5C 99.3334,45.8367 99.5001,62.1701 100,78.5C 105.267,89.4221 113.1,91.7554 123.5,85.5C 125.499,83.5065 126.999,81.1732 128,78.5C 128.5,62.1701 128.667,45.8367 128.5,29.5C 209.167,29.5 289.833,29.5 370.5,29.5C 370.333,45.8367 370.5,62.1701 371,78.5C 376.311,89.4379 384.144,91.7712 394.5,85.5C 396.622,83.5487 398.122,81.2154 399,78.5C 399.5,62.1701 399.667,45.8367 399.5,29.5C 417.836,29.3334 436.17,29.5001 454.5,30C 475.563,34.0692 489.396,46.2359 496,66.5C 496.5,87.4974 496.667,108.497 496.5,129.5C 335.833,129.5 175.167,129.5 14.5,129.5C 14.0518,106.122 14.5518,82.7891 16,59.5C 20.7185,44.2827 30.5518,34.2827 45.5,29.5 Z"/></g>
<g><path style="opacity:0.993" fill="#ffffff" d="M 14.5,160.5 C 175.833,160.5 337.167,160.5 498.5,160.5C 498.667,254.501 498.5,348.501 498,442.5C 491.639,463.188 477.806,476.021 456.5,481C 319.833,481.667 183.167,481.667 46.5,481C 28.8801,476.635 18.3801,465.468 15,447.5C 14.5,351.834 14.3333,256.167 14.5,160.5 Z M 111.5,216.5 C 124.837,216.333 138.171,216.5 151.5,217C 155.066,217.7 157.9,219.533 160,222.5C 161.634,237.741 161.968,253.074 161,268.5C 159.5,272.667 156.667,275.5 152.5,277C 138.167,277.667 123.833,277.667 109.5,277C 104.478,275.308 101.645,271.808 101,266.5C 100.333,253.5 100.333,240.5 101,227.5C 102.014,221.322 105.514,217.655 111.5,216.5 Z M 230.5,216.5 C 243.837,216.333 257.171,216.5 270.5,217C 274.066,217.7 276.9,219.533 279,222.5C 280.62,238.099 280.953,253.766 280,269.5C 279.31,272.196 277.81,274.363 275.5,276C 259.901,277.62 244.234,277.953 228.5,277C 223.929,275.427 221.096,272.26 220,267.5C 219.333,254.167 219.333,240.833 220,227.5C 221.014,221.322 224.514,217.655 230.5,216.5 Z M 350.5,216.5 C 364.171,216.333 377.837,216.5 391.5,217C 397.583,218.417 400.749,222.25 401,228.5C 401.667,241.167 401.667,253.833 401,266.5C 401.068,271.872 398.568,275.372 393.5,277C 378.5,277.667 363.5,277.667 348.5,277C 344.667,275.833 342.167,273.333 341,269.5C 340.333,254.5 340.333,239.5 341,224.5C 343.161,220.495 346.328,217.829 350.5,216.5 Z M 109.5,352.5 C 124.17,352.333 138.837,352.5 153.5,353C 157.333,354.167 159.833,356.667 161,360.5C 161.667,374.833 161.667,389.167 161,403.5C 159.303,409.193 155.469,412.36 149.5,413C 136.833,413.667 124.167,413.667 111.5,413C 105.333,412.167 101.833,408.667 101,402.5C 100.333,389.5 100.333,376.5 101,363.5C 101.843,358.172 104.677,354.505 109.5,352.5 Z M 227.5,352.5 C 242.504,352.333 257.504,352.5 272.5,353C 276.333,354.167 278.833,356.667 280,360.5C 280.667,375.5 280.667,390.5 280,405.5C 278.604,410.228 275.438,412.728 270.5,413C 257.167,413.667 243.833,413.667 230.5,413C 224.333,412.167 220.833,408.667 220,402.5C 219.333,389.167 219.333,375.833 220,362.5C 221.213,358.131 223.713,354.797 227.5,352.5 Z M 348.5,352.5 C 363.17,352.333 377.837,352.5 392.5,353C 397.522,354.692 400.355,358.192 401,363.5C 401.667,376.5 401.667,389.5 401,402.5C 400.167,408.667 396.667,412.167 390.5,413C 377.167,413.667 363.833,413.667 350.5,413C 346.934,412.3 344.1,410.467 342,407.5C 340.365,391.926 340.032,376.259 341,360.5C 342.353,356.65 344.853,353.983 348.5,352.5 Z"/></g>
</svg>
