<?xml version="1.0" encoding="UTF-8"?>
<!DOCTYPE svg PUBLIC "-//W3C//DTD SVG 1.1//EN" "http://www.w3.org/Graphics/SVG/1.1/DTD/svg11.dtd">
<svg xmlns="http://www.w3.org/2000/svg" version="1.1" width="62px" height="62px" style="shape-rendering:geometricPrecision; text-rendering:geometricPrecision; image-rendering:optimizeQuality; fill-rule:evenodd; clip-rule:evenodd" xmlns:xlink="http://www.w3.org/1999/xlink">
<g><path style="opacity:0.947" fill="#184ca1" d="M 11.5,-0.5 C 14.5,-0.5 17.5,-0.5 20.5,-0.5C 21.038,1.11723 21.3713,2.7839 21.5,4.5C 26.5,4.5 31.5,4.5 36.5,4.5C 36.6287,2.7839 36.962,1.11723 37.5,-0.5C 40.1667,-0.5 42.8333,-0.5 45.5,-0.5C 45.2881,6.62366 47.6215,12.6237 52.5,17.5C 52.5,18.1667 52.8333,18.5 53.5,18.5C 53.3284,19.4916 53.6618,20.1583 54.5,20.5C 54.5,21.1667 54.8333,21.5 55.5,21.5C 55.3284,22.4916 55.6618,23.1583 56.5,23.5C 56.5,24.1667 56.8333,24.5 57.5,24.5C 57.5,25.1667 57.8333,25.5 58.5,25.5C 58.7376,27.4044 59.7376,28.7377 61.5,29.5C 61.5,30.8333 61.5,32.1667 61.5,33.5C 55.6803,33.4503 50.0136,34.2837 44.5,36C 47.1667,38.6667 47.1667,41.3333 44.5,44C 45.3802,45.3561 45.7135,46.8561 45.5,48.5C 42.6755,48.9193 40.5088,47.9193 39,45.5C 39.1271,48.1411 40.6271,49.8078 43.5,50.5C 44.1667,50.1667 44.8333,49.8333 45.5,49.5C 46.4909,53.4454 46.8242,57.4454 46.5,61.5C 34.8333,61.5 23.1667,61.5 11.5,61.5C 10.5663,53.889 10.2329,46.2223 10.5,38.5C 14.1817,38.6653 17.8484,38.4986 21.5,38C 22.056,37.6174 22.3893,37.1174 22.5,36.5C 15.25,35.1386 9.24999,37.1386 4.5,42.5C 2.93089,41.286 2.09755,39.6193 2,37.5C 1.32924,36.7476 0.495904,36.4142 -0.5,36.5C -0.5,29.5 -0.5,22.5 -0.5,15.5C 6.50793,15.6663 13.5079,15.4996 20.5,15C 17.1832,14.5017 13.8499,14.335 10.5,14.5C 10.2743,9.43758 10.6076,4.43758 11.5,-0.5 Z M 23.5,17.5 C 22.7109,17.2172 22.0442,16.7172 21.5,16C 22.816,15.4719 23.4827,15.9719 23.5,17.5 Z M 23.5,17.5 C 24.6525,23.3188 24.8192,29.3188 24,35.5C 23.6174,36.056 23.1174,36.3893 22.5,36.5C 23.418,30.2252 23.7513,23.8918 23.5,17.5 Z M 8.5,24.5 C 12.1232,25.4114 12.2899,26.7447 9,28.5C 8.50999,27.2068 8.34332,25.8734 8.5,24.5 Z M 40.5,24.5 C 40.1667,26.8333 38.8333,28.1667 36.5,28.5C 37.5,26.8333 38.8333,25.5 40.5,24.5 Z M 31.5,30.5 C 29.9418,32.4327 29.4418,34.4327 30,36.5C 29.3292,37.2524 28.4959,37.5858 27.5,37.5C 28.1616,35.5295 28.8283,33.5295 29.5,31.5C 29.9569,30.7025 30.6236,30.3691 31.5,30.5 Z M 35.5,42.5 C 34.1667,42.5 32.8333,42.5 31.5,42.5C 32.2613,41.6091 33.2613,40.9424 34.5,40.5C 35.2975,40.9569 35.6309,41.6236 35.5,42.5 Z M 27.5,41.5 C 28.8333,41.8333 30.1667,42.1667 31.5,42.5C 29.8716,43.8528 28.5383,43.5195 27.5,41.5 Z M 28.5,52.5 C 30.7388,54.0012 30.7388,55.3345 28.5,56.5C 27.7084,55.3002 27.7084,53.9669 28.5,52.5 Z"/></g>
<g><path style="opacity:0.807" fill="#184ca1" d="M 22.5,-0.5 C 26.8333,-0.5 31.1667,-0.5 35.5,-0.5C 35.5,0.833333 35.5,2.16667 35.5,3.5C 31.1667,3.5 26.8333,3.5 22.5,3.5C 22.5,2.16667 22.5,0.833333 22.5,-0.5 Z"/></g>
<g><path style="opacity:0.767" fill="#184ca1" d="M 61.5,19.5 C 61.5,21.1667 61.5,22.8333 61.5,24.5C 60.609,25.1098 59.609,25.4431 58.5,25.5C 57.8333,25.5 57.5,25.1667 57.5,24.5C 56.8333,24.5 56.5,24.1667 56.5,23.5C 56.6716,22.5084 56.3382,21.8417 55.5,21.5C 54.8333,21.5 54.5,21.1667 54.5,20.5C 54.6716,19.5084 54.3382,18.8417 53.5,18.5C 52.8333,18.5 52.5,18.1667 52.5,17.5C 56.0514,14.8 59.0514,15.4666 61.5,19.5 Z"/></g>
</svg>
