<?xml version="1.0" encoding="UTF-8"?>
<!DOCTYPE svg PUBLIC "-//W3C//DTD SVG 1.1//EN" "http://www.w3.org/Graphics/SVG/1.1/DTD/svg11.dtd">
<svg xmlns="http://www.w3.org/2000/svg" version="1.1" width="62px" height="61px" style="shape-rendering:geometricPrecision; text-rendering:geometricPrecision; image-rendering:optimizeQuality; fill-rule:evenodd; clip-rule:evenodd" xmlns:xlink="http://www.w3.org/1999/xlink">
<g><path style="opacity:0.903" fill="#184ca1" d="M -0.5,-0.5 C 1.16667,-0.5 2.83333,-0.5 4.5,-0.5C 4.80393,0.14987 5.13727,0.816537 5.5,1.5C 11.8072,2.66392 18.1405,2.83059 24.5,2C 25.3805,1.2917 26.0472,0.458367 26.5,-0.5C 29.1667,-0.5 31.8333,-0.5 34.5,-0.5C 34.9528,0.458367 35.6195,1.2917 36.5,2C 42.8333,2.66667 49.1667,2.66667 55.5,2C 56.2524,1.32924 56.5858,0.495904 56.5,-0.5C 58.1667,-0.5 59.8333,-0.5 61.5,-0.5C 61.5,3.83333 61.5,8.16667 61.5,12.5C 60.1266,12.6567 58.7932,12.49 57.5,12C 55.4279,9.29306 52.7612,8.29306 49.5,9C 55.169,13.8853 59.169,19.7186 61.5,26.5C 61.5,31.1667 61.5,35.8333 61.5,40.5C 56.1625,41.8161 53.1625,39.6494 52.5,34C 52.8258,31.5155 53.8258,29.3488 55.5,27.5C 52.474,18.4739 46.474,12.4739 37.5,9.5C 35.3455,11.0058 33.0121,12.0058 30.5,12.5C 22.6793,8.78849 16.1793,10.4552 11,17.5C 8.91282,20.6728 7.07948,24.0061 5.5,27.5C 8.35601,30.6242 9.18934,34.2908 8,38.5C 5.43122,40.8989 2.59789,41.5656 -0.5,40.5C -0.5,35.8333 -0.5,31.1667 -0.5,26.5C 1.97361,19.8183 5.97361,13.9849 11.5,9C 8.23875,8.29306 5.57209,9.29306 3.5,12C 2.20677,12.49 0.873441,12.6567 -0.5,12.5C -0.5,8.16667 -0.5,3.83333 -0.5,-0.5 Z"/></g>
<g><path style="opacity:0.939" fill="#184ca1" d="M 47.5,60.5 C 36.1667,60.5 24.8333,60.5 13.5,60.5C 14.4446,52.5096 14.6113,44.5096 14,36.5C 19.2683,28.9494 24.7683,21.6161 30.5,14.5C 36.4712,21.098 41.9712,28.098 47,35.5C 47.4997,43.8267 47.6664,52.16 47.5,60.5 Z M 34.5,36.5 C 35.4584,36.9528 36.2917,37.6195 37,38.5C 37.5343,42.859 37.3676,47.1924 36.5,51.5C 32.5,51.5 28.5,51.5 24.5,51.5C 23.1497,46.7424 23.3164,42.0758 25,37.5C 25.4966,39.8098 25.6633,42.1432 25.5,44.5C 28.5,44.5 31.5,44.5 34.5,44.5C 34.5,41.8333 34.5,39.1667 34.5,36.5 Z"/></g>
</svg>
