<?xml version="1.0" encoding="UTF-8"?>
<!DOCTYPE svg PUBLIC "-//W3C//DTD SVG 1.1//EN" "http://www.w3.org/Graphics/SVG/1.1/DTD/svg11.dtd">
<svg xmlns="http://www.w3.org/2000/svg" version="1.1" width="62px" height="62px" style="shape-rendering:geometricPrecision; text-rendering:geometricPrecision; image-rendering:optimizeQuality; fill-rule:evenodd; clip-rule:evenodd" xmlns:xlink="http://www.w3.org/1999/xlink">
<g><path style="opacity:0.907" fill="#184ca1" d="M 35.5,-0.5 C 40.1667,-0.5 44.8333,-0.5 49.5,-0.5C 49.8256,3.88387 49.4922,8.2172 48.5,12.5C 46.8513,11.3523 45.3513,10.019 44,8.5C 36.8604,15.6396 29.6937,22.8063 22.5,30C 20.8333,30.6667 19.1667,30.6667 17.5,30C 15.9825,28.3149 14.3159,26.8149 12.5,25.5C 10.0163,27.483 7.68292,29.6496 5.5,32C 3.65472,33.128 1.65472,33.628 -0.5,33.5C -0.5,31.5 -0.5,29.5 -0.5,27.5C 2.96414,24.5375 6.29747,21.3709 9.5,18C 11.1667,17.3333 12.8333,17.3333 14.5,18C 16.3477,19.8995 18.3477,21.2328 20.5,22C 26.8281,16.3386 32.8281,10.3386 38.5,4C 37.6854,2.35659 36.6854,0.856588 35.5,-0.5 Z"/></g>
<g><path style="opacity:0.789" fill="#184ca1" d="M 40.5,17.5 C 42.5,17.5 44.5,17.5 46.5,17.5C 46.5,21.8333 46.5,26.1667 46.5,30.5C 44.5,30.5 42.5,30.5 40.5,30.5C 40.5,26.1667 40.5,21.8333 40.5,17.5 Z"/></g>
<g><path style="opacity:0.917" fill="#184ca1" d="M 38.5,32.5 C 37.8333,32.5 37.5,32.8333 37.5,33.5C 36.8333,33.5 36.5,33.8333 36.5,34.5C 35.4168,34.5394 34.4168,34.8728 33.5,35.5C 32.5078,31.2172 32.1744,26.8839 32.5,22.5C 34.5,22.5 36.5,22.5 38.5,22.5C 38.5,25.8333 38.5,29.1667 38.5,32.5 Z"/></g>
<g><path style="opacity:0.817" fill="#184ca1" d="M 9.5,29.5 C 11.5,29.5 13.5,29.5 15.5,29.5C 15.5,35.8333 15.5,42.1667 15.5,48.5C 13.5,48.5 11.5,48.5 9.5,48.5C 9.5,42.1667 9.5,35.8333 9.5,29.5 Z"/></g>
<g><path style="opacity:0.946" fill="#184ca1" d="M 25.5,29.5 C 27.1667,29.5 28.8333,29.5 30.5,29.5C 30.5,35.8333 30.5,42.1667 30.5,48.5C 28.5,48.5 26.5,48.5 24.5,48.5C 24.2088,42.077 24.5422,35.7436 25.5,29.5 Z"/></g>
<g><path style="opacity:0.817" fill="#184ca1" d="M 38.5,32.5 C 50.9585,30.788 55.9585,35.9547 53.5,48C 55.7292,51.0656 58.3959,53.5656 61.5,55.5C 61.5,57.5 61.5,59.5 61.5,61.5C 59.8333,61.5 58.1667,61.5 56.5,61.5C 52.3119,54.1987 45.9786,51.3653 37.5,53C 31.2433,47.1245 30.91,40.9579 36.5,34.5C 37.1667,34.5 37.5,34.1667 37.5,33.5C 38.1667,33.5 38.5,33.1667 38.5,32.5 Z M 40.5,36.5 C 47.6545,36.1527 50.8212,39.486 50,46.5C 45.6667,51.8333 41.3333,51.8333 37,46.5C 36.3333,44.5 36.3333,42.5 37,40.5C 38.3756,39.2949 39.5423,37.9616 40.5,36.5 Z"/></g>
<g><path style="opacity:0.806" fill="#184ca1" d="M 1.5,34.5 C 3.5,34.5 5.5,34.5 7.5,34.5C 7.5,39.5 7.5,44.5 7.5,49.5C 5.5,49.5 3.5,49.5 1.5,49.5C 1.5,44.5 1.5,39.5 1.5,34.5 Z"/></g>
<g><path style="opacity:0.933" fill="#184ca1" d="M 17.5,34.5 C 19.4672,34.2606 21.3005,34.5939 23,35.5C 23.499,39.8206 23.6657,44.1539 23.5,48.5C 21.1667,48.5 18.8333,48.5 16.5,48.5C 16.2256,43.737 16.559,39.0704 17.5,34.5 Z"/></g>
</svg>
