<?xml version="1.0" encoding="UTF-8"?>
<!DOCTYPE svg PUBLIC "-//W3C//DTD SVG 1.1//EN" "http://www.w3.org/Graphics/SVG/1.1/DTD/svg11.dtd">
<svg xmlns="http://www.w3.org/2000/svg" version="1.1" width="62px" height="61px" style="shape-rendering:geometricPrecision; text-rendering:geometricPrecision; image-rendering:optimizeQuality; fill-rule:evenodd; clip-rule:evenodd" xmlns:xlink="http://www.w3.org/1999/xlink">
<g><path style="opacity:0.902" fill="#184ca1" d="M 21.5,-0.5 C 24.8333,-0.5 28.1667,-0.5 31.5,-0.5C 34.5012,2.49262 37.8346,5.15929 41.5,7.5C 46.1392,6.21444 49.4725,3.54777 51.5,-0.5C 54.8333,-0.5 58.1667,-0.5 61.5,-0.5C 61.5,1.83333 61.5,4.16667 61.5,6.5C 57.5275,8.82171 53.5275,11.155 49.5,13.5C 53.9942,16.7267 57.9942,20.3933 61.5,24.5C 61.5,25.5 61.5,26.5 61.5,27.5C 59.4096,30.8748 56.4096,32.0414 52.5,31C 50.5625,28.9291 48.8959,26.7625 47.5,24.5C 47.5,23.8333 47.1667,23.5 46.5,23.5C 45.5084,23.6716 44.8417,23.3382 44.5,22.5C 44.5,21.8333 44.1667,21.5 43.5,21.5C 41.0635,17.9882 38.3968,17.9882 35.5,21.5C 35.5,22.1667 35.1667,22.5 34.5,22.5C 33.9941,24.1054 33.3274,24.4387 32.5,23.5C 32.1667,22.1667 31.8333,22.1667 31.5,23.5C 30.1667,24.1667 28.8333,24.8333 27.5,25.5C 26.8333,25.5 26.5,25.8333 26.5,26.5C 24.4207,27.4997 22.4207,27.1663 20.5,25.5C 19.3595,24.5745 19.3595,23.7412 20.5,23C 19.8333,22.6667 19.1667,22.3333 18.5,22C 19.5707,21.1482 20.5707,20.3149 21.5,19.5C 22.1667,18.8333 22.8333,18.1667 23.5,17.5C 24.1667,17.5 24.5,17.1667 24.5,16.5C 25.1667,16.5 25.8333,16.5 26.5,16.5C 27.1667,16.5 27.5,16.1667 27.5,15.5C 28.1667,15.1667 28.8333,14.8333 29.5,14.5C 30.1667,14.5 30.5,14.1667 30.5,13.5C 30.9528,12.5416 31.6195,11.7083 32.5,11C 31.9056,10.5357 31.2389,10.369 30.5,10.5C 27.4214,8.53321 24.5881,6.19988 22,3.5C 21.51,2.20677 21.3433,0.873441 21.5,-0.5 Z M 56.5,0.5 C 58.1765,1.18342 58.8432,2.51676 58.5,4.5C 57.5,4.5 56.5,4.5 55.5,4.5C 55.4326,3.04125 55.7659,1.70792 56.5,0.5 Z M 43.5,21.5 C 40.8333,21.5 38.1667,21.5 35.5,21.5C 38.3968,17.9882 41.0635,17.9882 43.5,21.5 Z M 54.5,23.5 C 58.6099,25.7458 58.2765,27.0792 53.5,27.5C 53.4326,26.0413 53.7659,24.7079 54.5,23.5 Z"/></g>
<g><path style="opacity:0.849" fill="#184ca1" d="M 30.5,10.5 C 31.2389,10.369 31.9056,10.5357 32.5,11C 31.6195,11.7083 30.9528,12.5416 30.5,13.5C 29.8333,13.5 29.5,13.8333 29.5,14.5C 28.8333,14.8333 28.1667,15.1667 27.5,15.5C 26.8333,15.5 26.5,15.8333 26.5,16.5C 25.8333,16.5 25.1667,16.5 24.5,16.5C 23.8333,16.5 23.5,16.8333 23.5,17.5C 19.5,17.5 15.5,17.5 11.5,17.5C 11.3339,23.1764 11.5006,28.8431 12,34.5C 12.4994,29.1771 12.666,23.8437 12.5,18.5C 15.6085,18.2641 18.6085,18.5975 21.5,19.5C 20.5707,20.3149 19.5707,21.1482 18.5,22C 19.1667,22.3333 19.8333,22.6667 20.5,23C 19.3595,23.7412 19.3595,24.5745 20.5,25.5C 22.4207,27.1663 24.4207,27.4997 26.5,26.5C 27.1667,26.5 27.5,26.1667 27.5,25.5C 28.8333,24.8333 30.1667,24.1667 31.5,23.5C 31.8333,23.5 32.1667,23.5 32.5,23.5C 33.3274,24.4387 33.9941,24.1054 34.5,22.5C 35.1667,22.5 35.5,22.1667 35.5,21.5C 38.1667,21.5 40.8333,21.5 43.5,21.5C 44.1667,21.5 44.5,21.8333 44.5,22.5C 44.8417,23.3382 45.5084,23.6716 46.5,23.5C 47.1667,23.5 47.5,23.8333 47.5,24.5C 47.5,36.5 47.5,48.5 47.5,60.5C 31.5,60.5 15.5,60.5 -0.5,60.5C -0.5,44.1667 -0.5,27.8333 -0.5,11.5C 9.99952,10.5423 20.3329,10.209 30.5,10.5 Z M 4.5,18.5 C 7.5,18.1667 8.83333,19.5 8.5,22.5C 6.83333,22.5 5.16667,22.5 3.5,22.5C 3.43255,21.0413 3.76589,19.7079 4.5,18.5 Z M 37.5,26.5 C 39.4286,26.2308 41.0953,26.7308 42.5,28C 41.3826,29.8921 39.7159,30.7254 37.5,30.5C 37.5,29.1667 37.5,27.8333 37.5,26.5 Z M 3.5,27.5 C 5.16667,27.5 6.83333,27.5 8.5,27.5C 8.64988,31.1612 7.14988,32.1612 4,30.5C 3.51722,29.552 3.35055,28.552 3.5,27.5 Z M 39.5,34.5 C 43.0164,36.1183 43.1831,37.785 40,39.5C 36.9281,38.119 36.7614,36.4523 39.5,34.5 Z M 4.5,35.5 C 5.83333,35.5 7.16667,35.5 8.5,35.5C 8.98989,37.9484 8.15656,39.615 6,40.5C 3.38943,39.5001 2.88943,37.8334 4.5,35.5 Z M 11.5,39.5 C 12.1869,44.9003 12.8536,50.4003 13.5,56C 13.1667,56.1667 12.8333,56.3333 12.5,56.5C 11.5046,50.8722 11.1712,45.2055 11.5,39.5 Z M 37.5,43.5 C 39.7159,43.2746 41.3826,44.1079 42.5,46C 41.0953,47.2692 39.4286,47.7692 37.5,47.5C 37.5,46.1667 37.5,44.8333 37.5,43.5 Z M 4.5,44.5 C 7.5,44.1667 8.83333,45.5 8.5,48.5C 4.55995,49.234 3.22662,47.9007 4.5,44.5 Z M 4.5,52.5 C 8.16124,52.3501 9.16124,53.8501 7.5,57C 3.70713,57.4866 2.70713,55.9866 4.5,52.5 Z M 38.5,52.5 C 42.5362,52.5724 43.3696,54.2391 41,57.5C 37.7093,57.5781 36.876,55.9114 38.5,52.5 Z"/></g>
</svg>
