<?xml version="1.0" encoding="UTF-8"?>
<!DOCTYPE svg PUBLIC "-//W3C//DTD SVG 1.1//EN" "http://www.w3.org/Graphics/SVG/1.1/DTD/svg11.dtd">
<svg xmlns="http://www.w3.org/2000/svg" version="1.1" width="62px" height="62px" style="shape-rendering:geometricPrecision; text-rendering:geometricPrecision; image-rendering:optimizeQuality; fill-rule:evenodd; clip-rule:evenodd" xmlns:xlink="http://www.w3.org/1999/xlink">
<g><path style="opacity:0.939" fill="#184ca1" d="M 49.5,-0.5 C 53.1667,-0.5 56.8333,-0.5 60.5,-0.5C 60.5,0.166667 60.8333,0.5 61.5,0.5C 61.5,2.5 61.5,4.5 61.5,6.5C 55.667,11.831 49.667,16.9977 43.5,22C 42.8333,22.6667 42.1667,22.6667 41.5,22C 39.792,19.9565 37.792,18.2899 35.5,17C 40.7602,11.5805 45.4269,5.74721 49.5,-0.5 Z"/></g>
<g><path style="opacity:0.937" fill="#184ca1" d="M -0.5,8.5 C 12.5043,8.33344 25.5043,8.50011 38.5,9C 37.5,11.3333 35.8333,13 33.5,14C 24.1726,14.4998 14.8393,14.6665 5.5,14.5C 5.5,23.5 5.5,32.5 5.5,41.5C 22.5,41.5 39.5,41.5 56.5,41.5C 56.3336,32.4938 56.5002,23.4938 57,14.5C 58.2088,12.8165 59.7088,11.4832 61.5,10.5C 61.5,24.5 61.5,38.5 61.5,52.5C 53.2212,53.4396 44.8878,53.7729 36.5,53.5C 36.5,54.5 36.5,55.5 36.5,56.5C 40.8514,55.533 43.1847,57.1996 43.5,61.5C 34.8333,61.5 26.1667,61.5 17.5,61.5C 17.8153,57.1996 20.1486,55.533 24.5,56.5C 24.5,55.5 24.5,54.5 24.5,53.5C 16.1122,53.7729 7.77885,53.4396 -0.5,52.5C -0.5,37.8333 -0.5,23.1667 -0.5,8.5 Z"/></g>
<g><path style="opacity:0.913" fill="#184ca1" d="M 29.5,19.5 C 37.3729,20.0384 40.0396,24.0384 37.5,31.5C 32.3395,36.1263 26.6728,37.1263 20.5,34.5C 22.5963,28.7673 25.5963,23.7673 29.5,19.5 Z"/></g>
</svg>
