<?xml version="1.0" encoding="UTF-8"?>
<!DOCTYPE svg PUBLIC "-//W3C//DTD SVG 1.1//EN" "http://www.w3.org/Graphics/SVG/1.1/DTD/svg11.dtd">
<svg xmlns="http://www.w3.org/2000/svg" version="1.1" width="62px" height="61px" style="shape-rendering:geometricPrecision; text-rendering:geometricPrecision; image-rendering:optimizeQuality; fill-rule:evenodd; clip-rule:evenodd" xmlns:xlink="http://www.w3.org/1999/xlink">
<g><path style="opacity:0.84" fill="#184ca1" d="M 5.5,-0.5 C 8.16667,-0.5 10.8333,-0.5 13.5,-0.5C 17.8333,0.833333 22.1667,0.833333 26.5,-0.5C 29.5,-0.5 32.5,-0.5 35.5,-0.5C 39.8333,0.833333 44.1667,0.833333 48.5,-0.5C 51.1667,-0.5 53.8333,-0.5 56.5,-0.5C 57.2726,4.22671 55.2726,6.72671 50.5,7C 52,8.5 53.5,10 55,11.5C 57.4978,16.5393 59.6645,21.5393 61.5,26.5C 61.5,28.8333 61.5,31.1667 61.5,33.5C 57.2445,34.5455 54.5778,33.0455 53.5,29C 54.2173,27.469 55.2173,26.1357 56.5,25C 54.3912,13.7245 47.7246,6.8912 36.5,4.5C 32.3401,7.11319 28.1735,7.11319 24,4.5C 13.5312,7.63576 7.03119,14.4691 4.5,25C 8.72665,28.9247 8.22665,32.0914 3,34.5C 1.86151,34.0109 0.69484,33.6775 -0.5,33.5C -0.5,31.1667 -0.5,28.8333 -0.5,26.5C 1.49567,21.6644 3.66234,16.6644 6,11.5C 7.70733,9.96252 9.20733,8.29585 10.5,6.5C 5.26042,6.60423 3.59375,4.2709 5.5,-0.5 Z M 10.5,6.5 C 11.0024,4.9153 12.0024,4.4153 13.5,5C 12.7562,6.03859 11.7562,6.53859 10.5,6.5 Z"/></g>
<g><path style="opacity:0.922" fill="#184ca1" d="M 28.5,15.5 C 30.288,15.2148 31.9547,15.5481 33.5,16.5C 36.5319,21.0351 39.3653,25.7017 42,30.5C 42.5343,34.859 42.3676,39.1924 41.5,43.5C 34.1667,43.5 26.8333,43.5 19.5,43.5C 18.7512,39.1813 18.5845,34.848 19,30.5C 22.6772,25.8097 25.8438,20.8097 28.5,15.5 Z M 30.5,28.5 C 31.7255,29.937 32.7255,31.6036 33.5,33.5C 31.3502,36.2779 29.3502,36.1112 27.5,33C 28.748,31.6003 29.748,30.1003 30.5,28.5 Z"/></g>
<g><path style="opacity:0.845" fill="#184ca1" d="M 19.5,44.5 C 26.8409,44.3337 34.1742,44.5003 41.5,45C 43.4425,46.9719 43.7758,49.1385 42.5,51.5C 34.855,52.6648 27.1883,52.8315 19.5,52C 17.501,49.6854 17.501,47.1854 19.5,44.5 Z"/></g>
<g><path style="opacity:0.953" fill="#184ca1" d="M 39.5,60.5 C 33.5,60.5 27.5,60.5 21.5,60.5C 21.5,58.5 21.5,56.5 21.5,54.5C 27.5,54.5 33.5,54.5 39.5,54.5C 39.5,56.5 39.5,58.5 39.5,60.5 Z"/></g>
</svg>
