<?xml version="1.0" encoding="UTF-8"?>
<!DOCTYPE svg PUBLIC "-//W3C//DTD SVG 1.1//EN" "http://www.w3.org/Graphics/SVG/1.1/DTD/svg11.dtd">
<svg xmlns="http://www.w3.org/2000/svg" version="1.1" width="62px" height="62px" style="shape-rendering:geometricPrecision; text-rendering:geometricPrecision; image-rendering:optimizeQuality; fill-rule:evenodd; clip-rule:evenodd" xmlns:xlink="http://www.w3.org/1999/xlink">
<g><path style="opacity:0.898" fill="#184ca1" d="M 13.5,-0.5 C 28.1667,-0.5 42.8333,-0.5 57.5,-0.5C 59.1667,0.5 60.5,1.83333 61.5,3.5C 61.5,6.83333 61.5,10.1667 61.5,13.5C 56.1535,15.1937 54.4868,18.6937 56.5,24C 58.2475,24.3519 59.9142,24.8519 61.5,25.5C 61.5,27.8333 61.5,30.1667 61.5,32.5C 59.8583,34.0808 57.8583,34.7475 55.5,34.5C 55.6663,41.175 55.4996,47.8417 55,54.5C 54.6207,57.0301 53.7874,59.3635 52.5,61.5C 39.5,61.5 26.5,61.5 13.5,61.5C 12.0693,59.8113 11.2359,57.8113 11,55.5C 10.5003,47.5069 10.3336,39.5069 10.5,31.5C 6.76574,31.6773 3.09907,31.3439 -0.5,30.5C -0.5,24.8333 -0.5,19.1667 -0.5,13.5C 3.06405,12.5773 6.73072,12.244 10.5,12.5C 9.96344,7.72822 10.9634,3.39489 13.5,-0.5 Z M 51.5,2.5 C 57.6865,4.07527 59.0199,7.57527 55.5,13C 49.0194,14.3571 46.5194,11.8571 48,5.5C 48.985,4.18586 50.1516,3.18586 51.5,2.5 Z M 14.5,9.5 C 23.8393,9.33355 33.1726,9.50021 42.5,10C 43.8333,10.6667 43.8333,11.3333 42.5,12C 36.3272,12.044 30.3272,12.7107 24.5,14C 32.3354,15.3016 40.3354,15.9683 48.5,16C 51.0393,17.805 52.0393,20.305 51.5,23.5C 43.4148,23.0989 35.4148,23.5989 27.5,25C 24.8028,28.2709 25.1361,31.2709 28.5,34C 35.8258,34.4997 43.1591,34.6663 50.5,34.5C 50.5,39.5 50.5,44.5 50.5,49.5C 38.5,49.5 26.5,49.5 14.5,49.5C 14.5,43.5 14.5,37.5 14.5,31.5C 21.6336,32.1954 24.3002,29.0287 22.5,22C 24.2445,14.9196 21.5778,11.7529 14.5,12.5C 14.5,11.5 14.5,10.5 14.5,9.5 Z M 8.5,19.5 C 11.7742,20.3785 12.1075,21.7119 9.5,23.5C 7.35765,22.5629 7.02431,21.2296 8.5,19.5 Z M 38.5,27.5 C 45.1667,27.5 51.8333,27.5 58.5,27.5C 58.5,28.5 58.5,29.5 58.5,30.5C 51.8333,30.5 45.1667,30.5 38.5,30.5C 38.5,29.5 38.5,28.5 38.5,27.5 Z"/></g>
<g><path style="opacity:0.652" fill="#184ca1" d="M 30.5,17.5 C 36.8682,17.1703 43.2015,17.5037 49.5,18.5C 49.2907,19.086 48.9574,19.586 48.5,20C 42.5092,20.4995 36.5092,20.6662 30.5,20.5C 30.5,19.5 30.5,18.5 30.5,17.5 Z"/></g>
<g><path style="opacity:0.834" fill="#184ca1" d="M 16.5,37.5 C 24.5246,35.9116 27.1912,38.9116 24.5,46.5C 15.7553,49.1811 13.0886,46.1811 16.5,37.5 Z"/></g>
<g><path style="opacity:0.862" fill="#184ca1" d="M 41.5,37.5 C 49.2962,36.4054 51.6296,39.5721 48.5,47C 45.9009,47.769 43.4009,47.6023 41,46.5C 40.2642,43.408 40.4309,40.408 41.5,37.5 Z"/></g>
<g><path style="opacity:0.879" fill="#184ca1" d="M 28.5,37.5 C 37.1594,35.6756 39.8261,38.8422 36.5,47C 28.1273,48.7755 25.4606,45.6089 28.5,37.5 Z"/></g>
</svg>
