<?xml version="1.0" encoding="UTF-8"?>
<!DOCTYPE svg PUBLIC "-//W3C//DTD SVG 1.1//EN" "http://www.w3.org/Graphics/SVG/1.1/DTD/svg11.dtd">
<svg xmlns="http://www.w3.org/2000/svg" version="1.1" width="62px" height="62px" style="shape-rendering:geometricPrecision; text-rendering:geometricPrecision; image-rendering:optimizeQuality; fill-rule:evenodd; clip-rule:evenodd" xmlns:xlink="http://www.w3.org/1999/xlink">
<g><path style="opacity:0.935" fill="#184ca1" d="M 6.5,-0.5 C 10.1667,-0.5 13.8333,-0.5 17.5,-0.5C 21.2867,1.79717 23.7867,5.13051 25,9.5C 25.4935,7.86586 25.6602,6.19919 25.5,4.5C 28.8333,4.5 32.1667,4.5 35.5,4.5C 35.854,12.5521 39.1873,14.2188 45.5,9.5C 48.1103,10.7767 50.4437,12.4434 52.5,14.5C 51.4196,16.9962 50.0862,19.3295 48.5,21.5C 50.1405,24.7224 52.8072,26.0557 56.5,25.5C 56.5,28.8333 56.5,32.1667 56.5,35.5C 52.4862,35.3345 48.4862,35.5012 44.5,36C 51.9713,34.7757 57.638,37.2757 61.5,43.5C 61.5,47.5 61.5,51.5 61.5,55.5C 59.1667,57.1667 57.1667,59.1667 55.5,61.5C 51.5,61.5 47.5,61.5 43.5,61.5C 37.2757,57.638 34.7757,51.9713 36,44.5C 35.5012,48.4862 35.3345,52.4862 35.5,56.5C 32.5314,57.3287 29.5314,57.4954 26.5,57C 26.4399,52.9761 24.6066,50.1427 21,48.5C 18.8672,50.6523 16.3672,51.819 13.5,52C 8.58743,48.0172 8.2541,43.6838 12.5,39C 10.6634,36.0573 7.99669,34.8906 4.5,35.5C 4.5,32.1667 4.5,28.8333 4.5,25.5C 10.9479,25.5649 10.9479,24.7315 4.5,23C 2.59809,21.2703 0.93142,19.437 -0.5,17.5C -0.5,13.5 -0.5,9.5 -0.5,5.5C 1.81382,3.52272 4.14715,1.52272 6.5,-0.5 Z M 6.5,4.5 C 10.2434,4.4592 10.4101,5.12587 7,6.5C 6.53566,5.90558 6.36899,5.23891 6.5,4.5 Z M 16.5,6.5 C 17.224,8.21839 17.8906,10.0517 18.5,12C 17.7362,14.0693 17.2362,16.236 17,18.5C 14.5052,19.7624 14.1718,19.4291 16,17.5C 16.4986,13.8484 16.6653,10.1817 16.5,6.5 Z M 29.5,23.5 C 35.9859,24.8015 38.1525,28.4682 36,34.5C 30.2787,38.7622 26.112,37.4289 23.5,30.5C 24.8334,27.5067 26.8334,25.1734 29.5,23.5 Z"/></g>
</svg>
